<svg id="Layer_1" xmlns="http://www.w3.org/2000/svg" data-name="Layer 1" viewBox="0 0 1025.68 294.85">
  <polygon fill="#FFF" points="383.35 123.31 383.35 155.81 350.84 155.81 350.84 167.74 383.35 167.74 383.35 200.24 395.27 200.24 395.27 167.74 427.77 167.74 427.77 155.81 395.27 155.81 395.27 123.31 383.35 123.31"></polygon>
  <path fill="#FFF" d="M467.26,141.29a19.45,19.45,0,0,1,11.41-10,55.5,55.5,0,0,1,18.63-2.81,57.52,57.52,0,0,1,14.62,1.69,23.52,23.52,0,0,1,10.76,5.94,27,27,0,0,1,6.59,11.33,59.07,59.07,0,0,1,2.25,17.67v14.45q0,10.77-2.33,17.84a24,24,0,0,1-17.83,16.94A59.21,59.21,0,0,1,496.5,216a57.22,57.22,0,0,1-15.83-1.93,25.41,25.41,0,0,1-11-6.18,25.72,25.72,0,0,1-6.43-11.17,59.66,59.66,0,0,1-2.08-17V94.06h6.1Zm29.56,68.92a50.11,50.11,0,0,0,12.93-1.45,19.76,19.76,0,0,0,8.92-4.9,20.26,20.26,0,0,0,5.14-9.4,58.45,58.45,0,0,0,1.6-14.94V165.07a51.82,51.82,0,0,0-1.93-15.51,21.48,21.48,0,0,0-5.54-9.39,19.57,19.57,0,0,0-8.91-4.66,51.17,51.17,0,0,0-12-1.29,68,68,0,0,0-10.28.81,25.46,25.46,0,0,0-9.64,3.45,20,20,0,0,0-7.07,7.63q-2.73,5-2.73,13.17v20.24A53.24,53.24,0,0,0,469,194.46a20.81,20.81,0,0,0,5.38,9.4,20.34,20.34,0,0,0,9.24,4.9A52.86,52.86,0,0,0,496.82,210.21Z" transform="translate(-12.17 -10.62)"></path>
  <path fill="#FFF" d="M581.8,216q-10.45,0-16.79-2.09a22.49,22.49,0,0,1-10-6.1,20.63,20.63,0,0,1-4.82-9.8,66.14,66.14,0,0,1-1.2-13.33V131h6.1v53.66a61.59,61.59,0,0,0,.88,11.16,16.3,16.3,0,0,0,3.7,7.95,17,17,0,0,0,8.11,4.82,49.61,49.61,0,0,0,14,1.61,51.7,51.7,0,0,0,14.05-1.53,16.91,16.91,0,0,0,8-4.66,16,16,0,0,0,3.69-8,64,64,0,0,0,.88-11.4V131h6.11v53.66a67.53,67.53,0,0,1-1.13,12.85,21,21,0,0,1-4.65,9.88,22.77,22.77,0,0,1-10,6.34Q592.4,216,581.8,216Z" transform="translate(-12.17 -10.62)"></path>
  <path fill="#FFF" d="M692.8,190.77a34.53,34.53,0,0,1-1.28,9.88,15.22,15.22,0,0,1-4.58,7.15,22.17,22.17,0,0,1-9,4.42,57.94,57.94,0,0,1-14.54,1.52H645.49q-3.78,0-7.47-.08t-8.19-.24l1.28-5.78c3.32.1,6.19.19,8.6.24s4.74.08,7,.08h16.86a61.81,61.81,0,0,0,11.57-.89,16.47,16.47,0,0,0,7.07-2.89,10.11,10.11,0,0,0,3.53-5.46,32.12,32.12,0,0,0,1-8.59q0-7.87-3.94-11.17t-13.57-4.25L652.8,173.1q-11.73-1.29-17.11-5.95t-5.38-14.77v-1.29q0-10.6,7.07-15.5t21.69-4.9h14.37q3.78,0,8,.08c2.83,0,6,.13,9.55.24l-1.28,5.78c-3.11-.1-6-.18-8.6-.24s-5.14-.08-7.55-.08H659.07q-12.54,0-17.59,3.38t-5.06,11.56a25.65,25.65,0,0,0,.64,6,10.64,10.64,0,0,0,2.41,4.65,12.67,12.67,0,0,0,5.14,3.3,33.12,33.12,0,0,0,8.67,1.76l16.07,1.61q12.84,1.29,18.15,6.35t5.3,14.7Z" transform="translate(-12.17 -10.62)"></path>
  <path fill="#FFF" d="M718,107.72c0,2.14-.48,3.61-1.45,4.41a6.75,6.75,0,0,1-7.71,0q-1.44-1.2-1.44-4.41a6.39,6.39,0,0,1,1.2-4.18c.81-1,2.17-1.45,4.1-1.45s3.29.49,4.1,1.45A6.39,6.39,0,0,1,718,107.72ZM709.67,131h6.1v82.41h-6.1Z" transform="translate(-12.17 -10.62)"></path>
  <path fill="#FFF" d="M770.23,134.22q-9.16,0-14.54,1.69a17.5,17.5,0,0,0-8.19,4.9,15.78,15.78,0,0,0-3.62,7.95,66.14,66.14,0,0,0-.8,11v53.65H737V159.77a65.42,65.42,0,0,1,1.13-12.62,21.74,21.74,0,0,1,4.58-9.87,22.18,22.18,0,0,1,10-6.51q6.59-2.33,17.51-2.33t17.51,2.25a22.16,22.16,0,0,1,10,6.34,21.44,21.44,0,0,1,4.58,9.88,68.43,68.43,0,0,1,1.12,12.86v53.65h-6.1V159.77a61.87,61.87,0,0,0-.89-11.09,16.45,16.45,0,0,0-3.69-8,17.11,17.11,0,0,0-8.2-4.82A51.86,51.86,0,0,0,770.23,134.22Z" transform="translate(-12.17 -10.62)"></path>
  <path fill="#FFF" d="M826.93,173.1A92.06,92.06,0,0,0,828.22,190a23.49,23.49,0,0,0,4.5,10.68,17.52,17.52,0,0,0,8.83,5.62,50.53,50.53,0,0,0,14.3,1.69q7.86,0,14-.08c4.13,0,8.06-.14,11.81-.24l-1.28,5.78q-5.14.17-12,.24t-12.61.08q-10.29,0-17-2.33a23.66,23.66,0,0,1-10.68-7,26.92,26.92,0,0,1-5.54-11.72A75.6,75.6,0,0,1,821,176v-10.6a59.07,59.07,0,0,1,2.25-17.67,27.6,27.6,0,0,1,6.5-11.33,24.39,24.39,0,0,1,10.45-6.1,49.76,49.76,0,0,1,14.21-1.85,55.64,55.64,0,0,1,14.46,1.69A22.83,22.83,0,0,1,885.65,146a50.42,50.42,0,0,1,2.17,15.9v4.34c0,3.11-.49,5-1.45,5.78s-3,1.13-5.94,1.13Zm55.1-5.46v-5.79a45.45,45.45,0,0,0-1.68-13.49,19.8,19.8,0,0,0-5.06-8.51,18.63,18.63,0,0,0-8.6-4.5,51.69,51.69,0,0,0-12.29-1.29,45.22,45.22,0,0,0-12.21,1.45,17.79,17.79,0,0,0-8.51,5.14,23.6,23.6,0,0,0-5.06,10.2,68.92,68.92,0,0,0-1.69,16.79Z" transform="translate(-12.17 -10.62)"></path>
  <path fill="#FFF" d="M964,190.77a34.16,34.16,0,0,1-1.29,9.88,15.15,15.15,0,0,1-4.58,7.15,22.06,22.06,0,0,1-9,4.42,57.94,57.94,0,0,1-14.54,1.52H916.65q-3.78,0-7.47-.08t-8.2-.24l1.29-5.78c3.32.1,6.19.19,8.59.24s4.74.08,7,.08h16.87a61.81,61.81,0,0,0,11.57-.89,16.52,16.52,0,0,0,7.07-2.89,10.11,10.11,0,0,0,3.53-5.46,32.57,32.57,0,0,0,1-8.59q0-7.87-3.93-11.17t-13.58-4.25L924,173.1q-11.73-1.29-17.11-5.95t-5.38-14.77v-1.29q0-10.6,7.07-15.5t21.68-4.9H944.6q3.76,0,8,.08t9.56.24l-1.29,5.78c-3.1-.1-6-.18-8.59-.24s-5.14-.08-7.55-.08H930.22q-12.53,0-17.59,3.38t-5.06,11.56a25.65,25.65,0,0,0,.64,6,10.75,10.75,0,0,0,2.41,4.65,12.74,12.74,0,0,0,5.14,3.3,33.11,33.11,0,0,0,8.68,1.76l16.06,1.61q12.86,1.29,18.16,6.35t5.3,14.7Z" transform="translate(-12.17 -10.62)"></path>
  <path fill="#FFF" d="M1037.85,190.77a34.53,34.53,0,0,1-1.28,9.88,15.22,15.22,0,0,1-4.58,7.15,22.17,22.17,0,0,1-9,4.42,57.94,57.94,0,0,1-14.54,1.52H990.54q-3.78,0-7.47-.08t-8.19-.24l1.28-5.78c3.32.1,6.19.19,8.6.24s4.74.08,7,.08h16.86a61.74,61.74,0,0,0,11.57-.89,16.47,16.47,0,0,0,7.07-2.89,10.11,10.11,0,0,0,3.53-5.46,32.12,32.12,0,0,0,1-8.59q0-7.87-3.94-11.17t-13.57-4.25l-16.39-1.61q-11.73-1.29-17.11-5.95t-5.38-14.77v-1.29q0-10.6,7.07-15.5t21.69-4.9h14.37q3.78,0,8,.08c2.83,0,6,.13,9.55.24l-1.28,5.78c-3.11-.1-6-.18-8.6-.24s-5.14-.08-7.55-.08h-14.53q-12.54,0-17.59,3.38t-5.06,11.56a25.65,25.65,0,0,0,.64,6,10.75,10.75,0,0,0,2.41,4.65,12.67,12.67,0,0,0,5.14,3.3,33.12,33.12,0,0,0,8.67,1.76l16.07,1.61q12.84,1.29,18.15,6.35t5.3,14.7Z" transform="translate(-12.17 -10.62)"></path>
  <path id="btg" fill="#FFF" d="M300.44,128.49c-28.69,0-41.86,12.07-41.86,39.67v4.23c0,26.18,11.44,38.88,38.41,38.88,8.62,0,17.25-1.57,23.36-6.43V208c0,14.74-6.43,19.6-21.48,19.6h-9c-5.15.09-7.49,1-10.6,6.09h0A141.25,141.25,0,0,1,159.6,299.57c-78,0-141.53-63.49-141.53-141.53S81.56,16.51,159.6,16.51a141.71,141.71,0,0,1,128,81.15h6.5a147.6,147.6,0,0,0-134.52-87C78.31,10.62,12.17,76.75,12.17,158S78.31,305.47,159.6,305.47a147.09,147.09,0,0,0,119.43-61h21.1c27.75,0,42-10.5,42-37.31V166.75C342.14,140.09,328.5,128.49,300.44,128.49Zm20.07,46.57c0,14.73-5.18,19.28-20.07,19.28-16.78,0-20.07-5.8-20.07-22.89v-2.67c0-16.93,3-23,20.07-23,16.78,0,20.07,5.95,20.07,23.2ZM98,98.86v77c0,28.53,13.17,40.45,41.86,40.45,29.79,0,43-11.6,43-40.29v-7.37c0-27-12.23-40.14-38.88-40.14-8.47,0-17.72,1.73-24,6.59V95.41Zm42.65,46.88c15,0,20.38,5.95,20.38,23.67V176c0,17.24-5.33,23.2-20.7,23.2s-20.69-6-20.69-23.36V166.9C119.67,151.07,125,145.74,140.68,145.74Zm107.08,3,3.61-17.56H220.32v-24l-21.79,3.29v71.65c0,24.77,9.72,32.14,36.22,32.14h11.6l3.61-17.4H236.32c-12.08,0-16-3-16-16.15v-32Z" transform="translate(-12.17 -10.62)"></path>
</svg>