<svg xmlns="http://www.w3.org/2000/svg" viewBox="0 0 210.31 32.08">
  <g id="Camada_2" data-name="Camada 2">
    <g id="Camada_1-2" data-name="Camada 1">
      <path fill="#005a64" d="M31.32 31.43h22.14v-7.17H40.92v-4.98h11.29v-7.17H40.92V7.83h12.54V.65H31.32v30.78zM75.92 22.09L69.91.65h-8.78l10.55 30.78h8.35L90.58.65h-8.61l-6.05 21.44zM98.61 31.43h20.42v-5.14h-13.91v-7.91h12.54v-5.15h-12.54V5.79h13.91V.65H98.61v30.78zM148.75 16a9.3 9.3 0 0 0 1.49-5.4v-1a11.36 11.36 0 0 0-.52-3.48 7.59 7.59 0 0 0-1.62-2.83 7.75 7.75 0 0 0-2.85-1.92A11.18 11.18 0 0 0 141 .65h-12.33v30.78H134V19.59h5.19l6.31 11.85h5.84L144.41 19a7.83 7.83 0 0 0 4.35-3m-5.21-1.9a5.65 5.65 0 0 1-3.81 1.12H134V5.06h6q4.89 0 4.89 4.8v.6a4.51 4.51 0 0 1-1.3 3.59M179.7 3.83A8.61 8.61 0 0 0 176 1a18.15 18.15 0 0 0-11.85 0 8.85 8.85 0 0 0-3.72 2.85 11.16 11.16 0 0 0-1.92 4.45 28.69 28.69 0 0 0-.54 5.84v3.8a30.23 30.23 0 0 0 .52 5.86 11.13 11.13 0 0 0 1.86 4.45 8.6 8.6 0 0 0 3.65 2.84 18.14 18.14 0 0 0 11.85 0 8.84 8.84 0 0 0 3.72-2.85 11.18 11.18 0 0 0 1.92-4.45 28.75 28.75 0 0 0 .54-5.84v-3.8a30.21 30.21 0 0 0-.52-5.86 11.14 11.14 0 0 0-1.86-4.45m-2 14.12a23.63 23.63 0 0 1-.48 5.23 7.85 7.85 0 0 1-1.43 3.2 4.94 4.94 0 0 1-2.35 1.61 12.75 12.75 0 0 1-6.74 0 4.93 4.93 0 0 1-2.38-1.62 7.63 7.63 0 0 1-1.4-3.2 24.69 24.69 0 0 1-.45-5.23v-3.8a23.7 23.7 0 0 1 .48-5.21 7.86 7.86 0 0 1 1.43-3.22 4.94 4.94 0 0 1 2.38-1.62 12.75 12.75 0 0 1 6.74 0 4.94 4.94 0 0 1 2.38 1.62 7.66 7.66 0 0 1 1.4 3.2 24.68 24.68 0 0 1 .45 5.23zM210 19.89a6.38 6.38 0 0 0-1.19-2.4 6.63 6.63 0 0 0-2.27-1.77 12.48 12.48 0 0 0-3.59-1.06l-4-.61a7.31 7.31 0 0 1-4.26-1.67 5 5 0 0 1-1.19-3.61 5.59 5.59 0 0 1 1.88-4.6q1.88-1.53 6.2-1.54a24.55 24.55 0 0 1 3.85.3 22.58 22.58 0 0 1 3.37.78l.61-2.21A19.91 19.91 0 0 0 206 .58a22.71 22.71 0 0 0-4.17-.37 17.67 17.67 0 0 0-4.54.54 10.34 10.34 0 0 0-3.46 1.58 6.89 6.89 0 0 0-2.18 2.59 8.12 8.12 0 0 0-.76 3.59v.22a7.9 7.9 0 0 0 1.66 5.34q1.66 1.92 5.56 2.49l3.89.56a11 11 0 0 1 2.83.76 4.52 4.52 0 0 1 1.71 1.25 4.44 4.44 0 0 1 .84 1.71 8.39 8.39 0 0 1 .24 2q0 3.42-1.88 5t-6.33 1.58a24.56 24.56 0 0 1-4.37-.37 36.88 36.88 0 0 1-3.67-.84l-.52 2.29a22.63 22.63 0 0 0 3.85 1 27.53 27.53 0 0 0 4.63.39 17 17 0 0 0 4.89-.63 9.56 9.56 0 0 0 3.44-1.77 7.21 7.21 0 0 0 2-2.72 8.83 8.83 0 0 0 .67-3.48v-.52a11.42 11.42 0 0 0-.35-2.85M11.13.65H0v30.78h21.62v-8.31H11.13V.65z" class="logo-leveros-svg"></path>
    </g>
  </g>
</svg>