<svg class="logo" version="1.1" xmlns="http://www.w3.org/2000/svg" xmlns:xlink="http://www.w3.org/1999/xlink" x="0px" y="0px" viewBox="0 0 668 121" xml:space="preserve" style="display: inline-block; vertical-align: middle;">
  <path class="logo-baloon" d="M69.4,7c-3.5-3.5-8.6-5.4-13.8-5.4C45,1.6,36.3,9.6,36.3,19.3c0,14.1,3.7,34.6,10.5,59.4 c2.4,8.4,4.7,16,6.5,21.7c0.1,0.2,0.2,0.4,0.2,0.4h0c0.4,0.6,1,0.9,1.7,0.9s1.4-0.4,1.7-0.9h0c0,0,0.1-0.1,0.2-0.3c0,0,0,0,0,0 c0.1-0.1,0.1-0.3,0.1-0.5c1.8-5.8,4.2-13.1,6.4-21.3c7-24.8,10.8-45.3,11-59.4C74.7,14.7,72.9,10.4,69.4,7z" style="fill: rgb(61, 129, 255);"></path>
  <path class="logo-baloon" d="M45,100.8c0,0,0.4-0.6,0.2-1.3c-1.7-5.5-3.7-12.1-5.9-19.6c-7-25.4-10.6-45.8-10.6-60.5c0-4.9,1.8-9.5,4.8-13.2 c-1.5-0.3-0.9-0.5-2.7-0.5c-19.4,0-29.5,17-29.5,25.7s1.7,22.6,16.3,39.6c7.3,8.4,20.5,25,24.2,29.8c0.3,0.6,0.9,1,1.6,1 C44.1,101.7,44.7,101.3,45,100.8L45,100.8z" style="fill: rgb(246, 218, 48);"></path>
  <path class="logo-baloon" d="M65.7,100.6c0,0-0.4-0.6-0.2-1.3c1.7-5.5,3.7-12.1,5.9-19.6c7-25.4,10.6-45.8,10.6-60.5c0-4.9-1.8-9.5-4.8-13.2 c1.5-0.3,0.9-0.5,2.7-0.5c19.4,0,29.5,17,29.5,25.7S107.7,53.8,93,70.8c-7.3,8.4-20.5,25-24.2,29.8c-0.3,0.6-0.9,1-1.6,1 C66.6,101.5,66,101.2,65.7,100.6L65.7,100.6z" style="fill: rgb(68, 143, 255);"></path>
  <path class="logo-baloon" d="M65.5,105.6c-0.6,0-1.2,0.2-1.6,0.6l0,0l0,0c0,0,0,0-0.1,0.1l-5.1,5.3l0,0c-0.2,0.2-0.5,0.3-0.6,0.3h-6l0,0 c0,0-0.3,0-0.6-0.3l-5.1-5.3c0,0-0.1-0.1-0.1-0.1l0,0l0,0c-0.4-0.4-1-0.7-1.6-0.7c-0.6,0-1.1,0.2-1.5,0.6l0,0l1.4,3.6l0.2,0.7 c0,0,0,0,0,0l3.4,8.9l0,0l0,0l0.2,0.5l0,0l0,0h13.5l0,0l0,0h0l0.1-0.3l3.4-9c0,0,0,0,0,0l1.6-4.3C66.6,105.8,66.1,105.6,65.5,105.6z " style="fill: rgb(255, 255, 255);"></path>
  <g>
    <path d="M148.6,76.5v18h-8.9V52.1c0-3,0-6-0.1-9h8.7c0.1,1.1,0.3,3.3,0.3,5c1.7-3.1,5.2-5.9,11.2-5.9 c8.4,0,14.8,7,14.8,18.4c0,13.1-7.2,20.3-16.1,20.3C152.9,81.1,150.1,78.9,148.6,76.5z M165.4,61.1c0-7.1-3-11.5-8.4-11.5 c-6.4,0-8.8,4.1-8.8,12.1c0,7.6,2.1,12.1,8.4,12.1C162.4,73.8,165.4,69.2,165.4,61.1z" style="fill: rgb(255, 255, 255);"></path>
  </g>
  <g>
    <path d="M181.3,53.3c0-4.2,0-7.3-0.1-10h8.8c0.1,0.9,0.2,4.3,0.2,6.9c1.7-4.5,5.8-7.6,12.1-7.7v8.6 c-7.5-0.1-12.1,2.6-12.1,12.5v16.8h-9V53.3z" style="fill: rgb(255, 255, 255);"></path>
  </g>
  <g>
    <path d="M215.3,63.4c0,5.6,2.8,10.4,8.3,10.4c4.8,0,6.2-2.2,7.3-4.5h9c-1.4,4.6-5.4,11.7-16.5,11.7 c-12,0-17.1-9.2-17.1-18.9c0-11.4,5.8-19.9,17.5-19.9c12.5,0,16.6,9.3,16.6,18.1c0,1.2,0,2.1-0.1,3.1H215.3z M231.5,57.7 c-0.1-4.9-2.2-9-7.7-9c-5.4,0-7.7,3.8-8.2,9H231.5z" style="fill: rgb(255, 255, 255);"></path>
  </g>
  <g>
    <path d="M278.9,68.6c-1.4,6.2-5.7,12.6-16.2,12.6c-11.1,0-17.1-7.8-17.1-19.1c0-10.8,6.4-19.6,17.6-19.6 c11.9,0,15.4,8.5,15.7,12.9h-8.8c-0.7-3.3-2.7-5.8-7.1-5.8c-5.3,0-8.3,4.6-8.3,12.2c0,8.1,3.1,12.4,8.2,12.4c3.9,0,6.1-2.2,7.2-5.5 H278.9z" style="fill: rgb(255, 255, 255);"></path>
  </g>
  <g>
    <path d="M316.8,71c0,3.5,0.3,8.1,0.5,9.1h-8.6c-0.3-0.8-0.5-2.7-0.5-4c-1.3,2.2-4,4.9-10.7,4.9 c-8.9,0-12.6-5.8-12.6-11.5c0-8.4,6.7-12.2,17.6-12.2c2.1,0,4.3,0,5.6,0v-2.6c0-2.8-1-5.9-6.5-5.9c-5,0-5.9,2.3-6.5,5h-8.5 c0.5-6.1,4.3-11.6,15.3-11.5c9.6,0.1,14.9,3.9,14.9,12.5V71z M308.1,62.8c-1,0-3.2,0-4.8,0c-6.6,0-9.4,1.9-9.4,6.1 c0,3.1,2,5.5,6,5.5c7.3,0,8.3-5,8.3-10.5V62.8z" style="fill: rgb(255, 255, 255);"></path>
  </g>
  <g>
    <path d="M323.4,43.3h5.9V33h9v10.3h7.6v6.9h-7.6v19.4c0,3.1,0.9,4.4,4,4.4c0.7,0,1.8,0,2.6-0.2v6.3 c-1.9,0.7-4.5,0.7-6.4,0.7c-6.7,0-9.2-3.6-9.2-9.9V50.2h-5.9V43.3z" style="fill: rgb(255, 255, 255);"></path>
  </g>
  <g>
    <path d="M387.4,61.7c0,11-6.5,19.4-18.1,19.4c-11.2,0-17.8-8.2-17.8-19.3c0-11.3,6.7-19.5,18.2-19.5 C380.4,42.4,387.4,50.1,387.4,61.7z M360.6,61.8c0,7.5,3.4,12.3,8.9,12.3c5.6,0,8.7-4.7,8.7-12.2c0-7.9-3.2-12.3-8.9-12.3 C363.9,49.6,360.6,53.8,360.6,61.8z" style="fill: rgb(255, 255, 255);"></path>
  </g>
  <g>
    <path d="M393.2,53.3c0-4.2,0-7.3-0.1-10h8.8c0.1,0.9,0.2,4.3,0.2,6.9c1.7-4.5,5.8-7.6,12.1-7.7v8.6 c-7.5-0.1-12.1,2.6-12.1,12.5v16.8h-9V53.3z" style="fill: rgb(255, 255, 255);"></path>
  </g>
  <g>
    <path d="M421.1,27.6h9v8.8h-9V27.6z M421.1,43.3h9v37h-9V43.3z" style="fill: rgb(255, 255, 255);"></path>
  </g>
  <g>
    <path d="M472,61.7c0,11-6.5,19.4-18.1,19.4c-11.2,0-17.8-8.2-17.8-19.3c0-11.3,6.7-19.5,18.2-19.5 C465,42.4,472,50.1,472,61.7z M445.2,61.8c0,7.5,3.4,12.3,8.9,12.3c5.6,0,8.7-4.7,8.7-12.2c0-7.9-3.2-12.3-8.9-12.3 C448.5,49.6,445.2,53.8,445.2,61.8z" style="fill: rgb(255, 255, 255);"></path>
  </g>
  <g>
    <path d="M484.4,69.4c0.9,3.3,3.5,5.2,7.7,5.2c4.3,0,6-1.7,6-4.3c0-2.7-1.6-3.9-7.5-5.3C479,62.1,477,58.5,477,53.4 c0-5.4,3.8-10.9,14.5-10.9c10.7,0,14.5,5.9,14.9,11h-8.5c-0.4-1.7-1.6-4.5-6.7-4.5c-4,0-5.2,1.8-5.2,3.8c0,2.2,1.3,3.2,7.5,4.7 c12,2.8,13.9,6.9,13.9,12.3c0,6.2-4.8,11.5-15.4,11.5c-10.7,0-15.3-5.2-16.2-11.8H484.4z" style="fill: rgb(255, 255, 255);"></path>
  </g>
  <g>
    <path d="M517.5,27.6h3.7v23c1.7-3.6,5.2-6.9,12.3-6.9c8.5,0,14.8,7,14.8,18.1c0,11.4-5.6,19.7-15.7,19.7 c-6,0-9.5-2.4-11.3-6.5c0,2.3-0.1,4.6-0.2,5.6h-3.7c0.1-4.1,0.1-8.2,0.1-12.3V27.6z M544.3,62c0-8.9-4.4-14.7-11.2-14.7 c-8.9,0-12.1,6.1-12.1,15.5c0,8.4,2.8,15.3,11.7,15.3C539.9,78.1,544.3,72.1,544.3,62z" style="fill: rgb(255, 255, 255);"></path>
  </g>
  <g>
    <path d="M555.5,54.5c0-6-0.1-8.6-0.1-9.8h3.7c0.1,1.1,0.1,3.5,0.1,8c2.1-5.4,6.7-8.6,12.5-8.9v4 c-7.5,0.5-12.5,5.6-12.5,14.2v18.7h-3.7V54.5z" style="fill: rgb(255, 255, 255);"></path>
  </g>
  <g>
    <path d="M602.5,73.8c0,3.2,0.3,5.8,0.5,6.9h-3.6c-0.3-0.9-0.5-2.5-0.6-5.5c-1.2,2.7-4.4,6.4-11.8,6.4 c-8.4,0-12-5.4-12-10.8c0-7.9,6.1-11.5,16.9-11.5c3,0,5.4,0,6.8,0v-3.6c0-3.6-1.1-8.4-9.2-8.4c-7.2,0-8.3,3.8-9.1,6.7h-3.7 c0.4-4,2.9-10.1,12.9-10.1c8.2,0,12.9,3.5,12.9,11.4V73.8z M598.8,62.4c-1.4,0-4.6,0-7,0c-8,0-12.9,2.1-12.9,8.2 c0,4.5,3.2,7.6,8.2,7.6c10.2,0,11.6-6.8,11.6-14.5V62.4z" style="fill: rgb(255, 255, 255);"></path>
  </g>
  <g>
    <path d="M614.5,70.7c1.2,4.6,4.5,7.4,10.2,7.4c6.4,0,8.9-2.9,8.9-6.9c0-4.1-1.7-6.1-9.7-8c-9.4-2.2-11.6-5.1-11.6-9.8 c0-5,3.7-9.6,12-9.6c8.2,0,12.1,5,12.7,10.1h-3.7c-0.6-3-3-6.7-9.1-6.7c-6.2,0-8,3.1-8,5.9c0,3.3,1.7,4.9,8.8,6.6 c10.2,2.5,12.7,5.8,12.7,11.2c0,6.5-5.3,10.6-13,10.6c-8.3,0-12.9-4.3-13.9-10.8H614.5z" style="fill: rgb(255, 255, 255);"></path>
  </g>
  <g>
    <path d="M646.4,27.6h3.7v7h-3.7V27.6z M646.4,44.7h3.7v36h-3.7V44.7z" style="fill: rgb(255, 255, 255);"></path>
  </g>
  <g>
    <path d="M662.3,80.7V27.6h3.7v53.1H662.3z" style="fill: rgb(255, 255, 255);"></path>
  </g>
  <polygon points="372.2,36.4 364.7,36.4 372.7,26.5 382.3,26.5 " style="fill: rgb(255, 255, 255);"></polygon>
</svg>