<svg width="144" height="28" viewBox="0 0 144 28" fill="none" xmlns="http://www.w3.org/2000/svg">
<path d="M26.532 8.28H28.332L20.232 27H18.648L14.508 17.244L10.368 27H8.784L0.684 8.28H2.448L9.612 25.02L13.464 15.876L10.332 8.316H11.952L14.508 14.472L17.028 8.316H18.684L15.552 15.876L19.404 25.02L26.532 8.28ZM38.9919 27.36C37.2399 27.36 35.6679 26.916 34.2759 26.028C32.9079 25.14 31.8279 23.964 31.0359 22.5C30.2439 21.036 29.8479 19.428 29.8479 17.676C29.8479 16.356 30.0759 15.12 30.5319 13.968C30.9879 12.792 31.6359 11.76 32.4759 10.872C33.3159 9.96 34.2879 9.252 35.3919 8.748C36.4959 8.22 37.6959 7.956 38.9919 7.956C40.2879 7.956 41.4879 8.22 42.5919 8.748C43.6959 9.252 44.6559 9.96 45.4719 10.872C46.3119 11.76 46.9599 12.792 47.4159 13.968C47.8959 15.12 48.1359 16.356 48.1359 17.676C48.1359 19.428 47.7279 21.036 46.9119 22.5C46.1199 23.964 45.0279 25.14 43.6359 26.028C42.2679 26.916 40.7199 27.36 38.9919 27.36ZM31.6479 17.748C31.6479 19.212 31.9719 20.556 32.6199 21.78C33.2919 22.98 34.1799 23.94 35.2839 24.66C36.3879 25.38 37.6119 25.74 38.9559 25.74C40.2999 25.74 41.5239 25.38 42.6279 24.66C43.7559 23.916 44.6439 22.932 45.2919 21.708C45.9639 20.484 46.2999 19.128 46.2999 17.64C46.2999 16.176 45.9639 14.832 45.2919 13.608C44.6439 12.384 43.7559 11.412 42.6279 10.692C41.5239 9.948 40.3119 9.576 38.9919 9.576C37.6479 9.576 36.4239 9.948 35.3199 10.692C34.2159 11.436 33.3279 12.432 32.6559 13.68C31.9839 14.904 31.6479 16.26 31.6479 17.748ZM79.9526 27H78.1526V16.56C78.1526 14.208 77.7806 12.468 77.0366 11.34C76.3166 10.188 75.2006 9.612 73.6886 9.612C72.1286 9.612 70.7606 10.164 69.5846 11.268C68.4086 12.348 67.5806 13.74 67.1006 15.444V27H65.3006V16.56C65.3006 14.16 64.9406 12.408 64.2206 11.304C63.5006 10.176 62.3846 9.612 60.8726 9.612C59.3366 9.612 57.9686 10.152 56.7686 11.232C55.5926 12.288 54.7526 13.68 54.2486 15.408V27H52.4486V8.28H54.1406V12.744C54.9086 11.232 55.9166 10.056 57.1646 9.216C58.4366 8.376 59.8166 7.956 61.3046 7.956C62.8886 7.956 64.1726 8.424 65.1566 9.36C66.1406 10.296 66.7286 11.52 66.9206 13.032C68.6966 9.648 71.1446 7.956 74.2646 7.956C76.3046 7.956 77.7566 8.688 78.6206 10.152C79.5086 11.592 79.9526 13.62 79.9526 16.236V27ZM83.842 21.6C83.842 20.496 84.166 19.524 84.814 18.684C85.486 17.844 86.41 17.196 87.586 16.74C88.786 16.26 90.154 16.02 91.69 16.02C92.65 16.02 93.646 16.104 94.678 16.272C95.734 16.44 96.658 16.668 97.45 16.956V15.192C97.45 13.464 96.946 12.084 95.938 11.052C94.93 10.02 93.562 9.504 91.834 9.504C90.898 9.504 89.926 9.696 88.918 10.08C87.91 10.464 86.878 11.016 85.822 11.736L85.066 10.44C87.514 8.784 89.83 7.956 92.014 7.956C94.222 7.956 95.974 8.616 97.27 9.936C98.59 11.256 99.25 13.056 99.25 15.336V24.624C99.25 25.2 99.514 25.5 100.042 25.524V27C99.586 27.048 99.286 27.06 99.142 27.036C98.686 26.988 98.326 26.796 98.062 26.46C97.822 26.124 97.69 25.776 97.666 25.416V23.94C96.802 25.02 95.686 25.86 94.318 26.46C92.974 27.06 91.558 27.36 90.07 27.36C88.894 27.36 87.826 27.108 86.866 26.604C85.93 26.076 85.186 25.38 84.634 24.516C84.106 23.652 83.842 22.68 83.842 21.6ZM96.73 23.148C97.21 22.548 97.45 21.984 97.45 21.456V18.36C95.722 17.688 93.862 17.352 91.87 17.352C89.974 17.352 88.45 17.736 87.298 18.504C86.146 19.248 85.57 20.244 85.57 21.492C85.57 22.284 85.774 23.016 86.182 23.688C86.59 24.36 87.154 24.9 87.874 25.308C88.618 25.716 89.47 25.92 90.43 25.92C91.774 25.92 93.01 25.668 94.138 25.164C95.266 24.636 96.13 23.964 96.73 23.148ZM120.026 27H118.226V16.56C118.226 14.16 117.878 12.408 117.182 11.304C116.486 10.176 115.406 9.612 113.942 9.612C112.886 9.612 111.854 9.864 110.846 10.368C109.838 10.872 108.95 11.568 108.182 12.456C107.414 13.32 106.862 14.304 106.526 15.408V27H104.726V8.28H106.418V12.744C107.162 11.328 108.266 10.176 109.73 9.288C111.218 8.4 112.79 7.956 114.446 7.956C116.486 7.956 117.926 8.676 118.766 10.116C119.606 11.556 120.026 13.596 120.026 16.236V27Z" fill="black"/>
<path d="M123.992 17.64C123.992 15.864 124.352 14.244 125.072 12.78C125.816 11.292 126.824 10.104 128.096 9.216C129.392 8.328 130.868 7.884 132.524 7.884C134.036 7.884 135.392 8.28 136.592 9.072C137.792 9.864 138.728 10.824 139.4 11.952V0.719999H142.568V23.4C142.568 24.144 142.904 24.528 143.576 24.552V27C142.976 27.096 142.508 27.144 142.172 27.144C141.548 27.144 140.996 26.928 140.516 26.496C140.06 26.064 139.832 25.584 139.832 25.056V23.472C139.088 24.672 138.092 25.62 136.844 26.316C135.596 27.012 134.3 27.36 132.956 27.36C131.228 27.36 129.68 26.916 128.312 26.028C126.968 25.116 125.912 23.928 125.144 22.464C124.376 20.976 123.992 19.368 123.992 17.64ZM139.4 20.412V15.012C139.112 14.196 138.644 13.464 137.996 12.816C137.348 12.144 136.616 11.616 135.8 11.232C135.008 10.824 134.216 10.62 133.424 10.62C132.2 10.62 131.12 10.956 130.184 11.628C129.272 12.3 128.552 13.176 128.024 14.256C127.52 15.336 127.268 16.476 127.268 17.676C127.268 18.924 127.544 20.076 128.096 21.132C128.672 22.188 129.452 23.04 130.436 23.688C131.42 24.312 132.512 24.624 133.712 24.624C134.48 24.624 135.272 24.444 136.088 24.084C136.904 23.7 137.624 23.184 138.248 22.536C138.872 21.888 139.256 21.18 139.4 20.412Z" fill="#F294AB"/>
</svg>
